<svg width="512" height="512" viewBox="0 0 512 512" fill="none" xmlns="http://www.w3.org/2000/svg">
<rect x="5" y="5" width="502" height="502" rx="251" fill="#0E1237"/>
<path d="M222.322 300.189V334.27H149.112C136.49 334.27 120.081 321.648 120.081 310.287V267.371C120.081 256.011 109.983 244.651 102.409 244.651H86V216.881H128.916C139.014 216.881 154.161 234.553 154.161 240.864V287.567C154.161 297.665 159.21 300.189 166.784 300.189H222.322Z" fill="url(#paint0_linear_612_1660)"/>
<g filter="url(#filter0_d_612_1660)">
<path d="M222.322 160.081V126H149.112C136.49 126 120.081 138.622 120.081 149.983V192.899C120.081 204.259 109.983 215.619 102.409 215.619H86V243.389H128.916C139.014 243.389 154.161 225.717 154.161 219.406V172.703C154.161 162.605 159.21 160.081 166.784 160.081H222.322Z" fill="url(#paint1_linear_612_1660)"/>
</g>
<path d="M272.812 300.189V334.27H346.022C358.645 334.27 375.054 321.648 375.054 310.287V267.371C375.054 256.011 385.152 244.651 392.725 244.651H409.134V216.881H366.218C356.12 216.881 340.973 234.553 340.973 240.864V287.567C340.973 297.665 335.924 300.189 328.351 300.189H272.812Z" fill="url(#paint2_linear_612_1660)"/>
<g filter="url(#filter1_d_612_1660)">
<path d="M272.812 160.081V126H346.022C358.645 126 375.054 138.622 375.054 149.983V192.899C375.054 204.259 385.152 215.619 392.725 215.619H409.134V243.389H366.218C356.12 243.389 340.973 225.717 340.973 219.406V172.703C340.973 162.605 335.924 160.081 328.351 160.081H272.812Z" fill="url(#paint3_linear_612_1660)"/>
</g>
<path d="M410.397 335.532H376.316V368.351H410.397V335.532Z" fill="#3AEF68"/>
<path d="M426.806 368.351H411.659V386.022H426.806V368.351Z" fill="#3AEF68"/>
<rect x="5" y="5" width="502" height="502" rx="251" stroke="url(#paint4_angular_612_1660)" stroke-width="10"/>
<defs>
<filter id="filter0_d_612_1660" x="82" y="126" width="144.322" height="125.389" filterUnits="userSpaceOnUse" color-interpolation-filters="sRGB">
<feFlood flood-opacity="0" result="BackgroundImageFix"/>
<feColorMatrix in="SourceAlpha" type="matrix" values="0 0 0 0 0 0 0 0 0 0 0 0 0 0 0 0 0 0 127 0" result="hardAlpha"/>
<feOffset dy="4"/>
<feGaussianBlur stdDeviation="2"/>
<feComposite in2="hardAlpha" operator="out"/>
<feColorMatrix type="matrix" values="0 0 0 0 0 0 0 0 0 0 0 0 0 0 0 0 0 0 0.25 0"/>
<feBlend mode="normal" in2="BackgroundImageFix" result="effect1_dropShadow_612_1660"/>
<feBlend mode="normal" in="SourceGraphic" in2="effect1_dropShadow_612_1660" result="shape"/>
</filter>
<filter id="filter1_d_612_1660" x="268.812" y="126" width="144.322" height="125.389" filterUnits="userSpaceOnUse" color-interpolation-filters="sRGB">
<feFlood flood-opacity="0" result="BackgroundImageFix"/>
<feColorMatrix in="SourceAlpha" type="matrix" values="0 0 0 0 0 0 0 0 0 0 0 0 0 0 0 0 0 0 127 0" result="hardAlpha"/>
<feOffset dy="4"/>
<feGaussianBlur stdDeviation="2"/>
<feComposite in2="hardAlpha" operator="out"/>
<feColorMatrix type="matrix" values="0 0 0 0 0 0 0 0 0 0 0 0 0 0 0 0 0 0 0.25 0"/>
<feBlend mode="normal" in2="BackgroundImageFix" result="effect1_dropShadow_612_1660"/>
<feBlend mode="normal" in="SourceGraphic" in2="effect1_dropShadow_612_1660" result="shape"/>
</filter>
<linearGradient id="paint0_linear_612_1660" x1="222.322" y1="335.532" x2="86" y2="216.881" gradientUnits="userSpaceOnUse">
<stop stop-color="#34DA87"/>
<stop offset="1" stop-color="#1A83E7"/>
</linearGradient>
<linearGradient id="paint1_linear_612_1660" x1="222.322" y1="126" x2="86" y2="244.651" gradientUnits="userSpaceOnUse">
<stop stop-color="#2594EF"/>
<stop offset="1" stop-color="#1A83E7"/>
</linearGradient>
<linearGradient id="paint2_linear_612_1660" x1="272.812" y1="335.532" x2="409.134" y2="216.881" gradientUnits="userSpaceOnUse">
<stop stop-color="#30C463"/>
<stop offset="1" stop-color="#53D5E9"/>
</linearGradient>
<linearGradient id="paint3_linear_612_1660" x1="272.812" y1="126" x2="409.134" y2="244.651" gradientUnits="userSpaceOnUse">
<stop stop-color="#2B8FD9"/>
<stop offset="1" stop-color="#53D5E9"/>
</linearGradient>
<radialGradient id="paint4_angular_612_1660" cx="0" cy="0" r="1" gradientUnits="userSpaceOnUse" gradientTransform="translate(256 256) rotate(90) scale(256)">
<stop offset="0.136828" stop-color="#28B4B1"/>
<stop offset="0.377361" stop-color="#208CEB"/>
<stop offset="0.687306" stop-color="#4ECCE7"/>
<stop offset="0.859053" stop-color="#3AEF68"/>
</radialGradient>
</defs>
</svg>
