<svg width="523" height="114" viewBox="0 0 523 114" fill="none" xmlns="http://www.w3.org/2000/svg">
<path d="M58.8 72.0217V85.7217H29.3704C24.2963 85.7217 17.7 80.6476 17.7 76.0809V58.8291C17.7 54.2624 13.6407 49.6957 10.5963 49.6957H4V38.5328H21.2519C25.3111 38.5328 31.4 45.6365 31.4 48.1735V66.9476C31.4 71.0069 33.4296 72.0217 36.4741 72.0217H58.8Z" fill="url(#paint0_linear_612_1686)"/>
<g filter="url(#filter0_d_612_1686)">
<path d="M58.8 15.7V2H29.3704C24.2963 2 17.7 7.07407 17.7 11.6407V28.8926C17.7 33.4593 13.6407 38.0259 10.5963 38.0259H4V49.1889H21.2519C25.3111 49.1889 31.4 42.0852 31.4 39.5482V20.7741C31.4 16.7148 33.4296 15.7 36.4741 15.7H58.8Z" fill="url(#paint1_linear_612_1686)"/>
</g>
<path d="M79.0964 72.0217V85.7217H108.526C113.6 85.7217 120.196 80.6476 120.196 76.0809V58.8291C120.196 54.2624 124.256 49.6957 127.3 49.6957H133.896V38.5328H116.645C112.585 38.5328 106.496 45.6365 106.496 48.1735V66.9476C106.496 71.0069 104.467 72.0217 101.422 72.0217H79.0964Z" fill="url(#paint2_linear_612_1686)"/>
<g filter="url(#filter1_d_612_1686)">
<path d="M79.0964 15.7V2H108.526C113.6 2 120.196 7.07407 120.196 11.6407V28.8926C120.196 33.4593 124.256 38.0259 127.3 38.0259H133.896V49.1889H116.645C112.585 49.1889 106.496 42.0852 106.496 39.5482V20.7741C106.496 16.7148 104.467 15.7 101.422 15.7H79.0964Z" fill="url(#paint3_linear_612_1686)"/>
</g>
<path d="M134.404 86.2295H120.704V99.4221H134.404V86.2295Z" fill="#3AEF68"/>
<path d="M141 99.4224H134.911V106.526H141V99.4224Z" fill="#3AEF68"/>
<path d="M194.32 65.36C194.693 65.0933 195.04 64.9333 195.36 64.88C195.707 64.8 195.973 64.76 196.16 64.76C196.613 64.76 197.027 64.8533 197.4 65.04C197.773 65.2267 198.16 65.6267 198.56 66.24L203.04 73C203.173 73.2133 203.293 73.4533 203.4 73.72C203.533 73.9867 203.6 74.2 203.6 74.36C203.6 74.9733 203.4 75.48 203 75.88C202.627 76.2533 202.213 76.5867 201.76 76.88C199.573 78.4 197.173 79.6267 194.56 80.56C191.973 81.4667 189.227 81.92 186.32 81.92C183.92 81.92 181.6 81.6133 179.36 81C177.147 80.3867 175.08 79.52 173.16 78.4C171.24 77.2533 169.48 75.8933 167.88 74.32C166.28 72.72 164.92 70.9467 163.8 69C162.68 67.0533 161.8 64.96 161.16 62.72C160.547 60.4533 160.24 58.0933 160.24 55.64C160.24 53.1867 160.547 50.8267 161.16 48.56C161.8 46.2933 162.68 44.2 163.8 42.28C164.92 40.3333 166.28 38.5733 167.88 37C169.48 35.4 171.24 34.04 173.16 32.92C175.08 31.8 177.147 30.9333 179.36 30.32C181.6 29.7067 183.92 29.4 186.32 29.4C189.227 29.4 191.907 29.7867 194.36 30.56C196.84 31.3333 199.16 32.48 201.32 34L201.2 33.88C201.787 34.2267 202.253 34.64 202.6 35.12C202.947 35.5733 203.12 36.1467 203.12 36.84C203.12 37.32 202.96 37.8133 202.64 38.32L199.08 44.36C198.333 45.6667 197.427 46.32 196.36 46.32C196.12 46.32 195.827 46.2667 195.48 46.16C195.133 46.0267 194.747 45.8133 194.32 45.52C193.147 44.7467 191.88 44.12 190.52 43.64C189.187 43.1333 187.76 42.88 186.24 42.88C184.56 42.88 183.013 43.2267 181.6 43.92C180.187 44.5867 178.973 45.5067 177.96 46.68C176.973 47.8533 176.2 49.2133 175.64 50.76C175.08 52.3067 174.8 53.9333 174.8 55.64C174.8 57.4 175.08 59.0533 175.64 60.6C176.2 62.12 176.973 63.44 177.96 64.56C178.973 65.68 180.187 66.5733 181.6 67.24C183.013 67.88 184.56 68.2 186.24 68.2C187.76 68.2 189.187 67.9333 190.52 67.4C191.853 66.8667 193.12 66.1867 194.32 65.36ZM209.615 55.64C209.615 53.1867 209.922 50.8267 210.535 48.56C211.175 46.2933 212.055 44.2 213.175 42.28C214.322 40.3333 215.682 38.5733 217.255 37C218.855 35.4 220.628 34.04 222.575 32.92C224.522 31.8 226.615 30.9333 228.855 30.32C231.122 29.7067 233.482 29.4 235.935 29.4C239.562 29.4 242.962 30.08 246.135 31.44C249.335 32.7733 252.108 34.6267 254.455 37C256.828 39.3467 258.695 42.12 260.055 45.32C261.442 48.4933 262.135 51.9333 262.135 55.64C262.135 58.0933 261.815 60.4533 261.175 62.72C260.562 64.96 259.682 67.0533 258.535 69C257.415 70.9467 256.055 72.72 254.455 74.32C252.882 75.8933 251.122 77.2533 249.175 78.4C247.228 79.52 245.135 80.3867 242.895 81C240.682 81.6133 238.362 81.92 235.935 81.92C233.482 81.92 231.122 81.6133 228.855 81C226.615 80.3867 224.522 79.52 222.575 78.4C220.628 77.2533 218.855 75.8933 217.255 74.32C215.682 72.72 214.322 70.9467 213.175 69C212.055 67.0533 211.175 64.96 210.535 62.72C209.922 60.4533 209.615 58.0933 209.615 55.64ZM224.215 55.64C224.215 57.4 224.482 59.0533 225.015 60.6C225.575 62.12 226.348 63.44 227.335 64.56C228.348 65.68 229.562 66.5733 230.975 67.24C232.415 67.88 234.028 68.2 235.815 68.2C237.548 68.2 239.108 67.88 240.495 67.24C241.908 66.5733 243.095 65.68 244.055 64.56C245.042 63.44 245.788 62.12 246.295 60.6C246.828 59.0533 247.095 57.4 247.095 55.64C247.095 53.9333 246.828 52.3067 246.295 50.76C245.788 49.2133 245.042 47.8533 244.055 46.68C243.095 45.5067 241.908 44.5867 240.495 43.92C239.108 43.2267 237.548 42.88 235.815 42.88C234.028 42.88 232.415 43.2267 230.975 43.92C229.562 44.5867 228.348 45.5067 227.335 46.68C226.348 47.8533 225.575 49.2133 225.015 50.76C224.482 52.3067 224.215 53.9333 224.215 55.64ZM306.281 76C305.561 76.72 304.735 77.44 303.801 78.16C302.895 78.8533 301.895 79.48 300.801 80.04C299.735 80.6 298.575 81.0533 297.321 81.4C296.095 81.7467 294.788 81.92 293.401 81.92C289.775 81.92 286.428 81.24 283.361 79.88C280.321 78.52 277.695 76.6667 275.481 74.32C273.295 71.9467 271.575 69.16 270.321 65.96C269.095 62.76 268.481 59.32 268.481 55.64C268.481 51.9333 269.095 48.4933 270.321 45.32C271.575 42.12 273.295 39.3467 275.481 37C277.695 34.6267 280.321 32.7733 283.361 31.44C286.428 30.08 289.775 29.4 293.401 29.4C294.868 29.4 296.201 29.5333 297.401 29.8C298.628 30.04 299.735 30.4 300.721 30.88C301.735 31.36 302.655 31.9333 303.481 32.6C304.335 33.2667 305.135 34 305.881 34.8V18.12C305.881 17.2667 306.135 16.5467 306.641 15.96C307.175 15.3733 307.961 15.08 309.001 15.08H318.001C318.348 15.08 318.708 15.16 319.081 15.32C319.481 15.4533 319.841 15.6533 320.161 15.92C320.481 16.1867 320.735 16.5067 320.921 16.88C321.135 17.2533 321.241 17.6667 321.241 18.12V77.92C321.241 79.9733 320.161 81 318.001 81H310.161C309.628 81 309.215 80.9333 308.921 80.8C308.628 80.6667 308.375 80.48 308.161 80.24C307.975 79.9733 307.801 79.6533 307.641 79.28C307.481 78.88 307.281 78.4267 307.041 77.92L306.281 76ZM282.881 55.64C282.881 57.4 283.148 59.0533 283.681 60.6C284.241 62.12 285.028 63.44 286.041 64.56C287.055 65.68 288.268 66.5733 289.681 67.24C291.121 67.88 292.708 68.2 294.441 68.2C296.148 68.2 297.748 67.8933 299.241 67.28C300.761 66.6667 302.081 65.8267 303.201 64.76C304.321 63.6667 305.215 62.3867 305.881 60.92C306.575 59.4533 306.961 57.88 307.041 56.2V55.64C307.041 53.9333 306.721 52.3067 306.081 50.76C305.441 49.2133 304.548 47.8533 303.401 46.68C302.281 45.5067 300.948 44.5867 299.401 43.92C297.881 43.2267 296.228 42.88 294.441 42.88C292.708 42.88 291.121 43.2267 289.681 43.92C288.268 44.5867 287.055 45.5067 286.041 46.68C285.028 47.8533 284.241 49.2133 283.681 50.76C283.148 52.3067 282.881 53.9333 282.881 55.64ZM331.838 33.32C331.838 32.4667 332.078 31.7333 332.558 31.12C333.038 30.5067 333.785 30.2 334.798 30.2H343.958C344.278 30.2 344.625 30.28 344.998 30.44C345.371 30.5733 345.718 30.7867 346.038 31.08C346.358 31.3467 346.625 31.6667 346.838 32.04C347.078 32.4133 347.198 32.84 347.198 33.32V77.92C347.198 78.9333 346.918 79.7067 346.358 80.24C345.798 80.7467 344.998 81 343.958 81H334.798C332.825 81 331.838 79.9733 331.838 77.92V33.32ZM331.838 13.08C331.838 11.96 332.078 11.1733 332.558 10.72C333.038 10.24 333.785 10 334.798 10H344.078C345.011 10 345.758 10.24 346.318 10.72C346.905 11.1733 347.198 11.96 347.198 13.08V20.88C347.198 21.2 347.118 21.5467 346.958 21.92C346.825 22.2933 346.625 22.6533 346.358 23C346.091 23.3467 345.758 23.64 345.358 23.88C344.985 24.0933 344.558 24.2 344.078 24.2H334.798C332.825 24.2 331.838 23.0933 331.838 20.88V13.08ZM361.64 30.92C361.64 28.44 362.173 26.1067 363.24 23.92C364.307 21.7333 365.733 19.8267 367.52 18.2C369.307 16.5467 371.36 15.2533 373.68 14.32C376 13.36 378.427 12.88 380.96 12.88H381.76C382.667 12.88 383.36 13.16 383.84 13.72C384.347 14.2533 384.6 15 384.6 15.96V23.6C384.6 24.5867 384.333 25.4133 383.8 26.08C383.293 26.72 382.613 27.04 381.76 27.04H380.96C380.4 27.04 379.867 27.1467 379.36 27.36C378.853 27.5467 378.4 27.8133 378 28.16C377.6 28.5067 377.28 28.92 377.04 29.4C376.8 29.8533 376.68 30.36 376.68 30.92V35.52H382.96C383.867 35.52 384.56 35.7733 385.04 36.28C385.547 36.76 385.8 37.5333 385.8 38.6V45.92C385.8 47.0667 385.547 47.9067 385.04 48.44C384.56 48.9733 383.867 49.24 382.96 49.24H376.68V77.92C376.68 78.9333 376.333 79.7067 375.64 80.24C374.973 80.7467 374.24 81 373.44 81H364.8C363.84 81 363.067 80.7067 362.48 80.12C361.92 79.5067 361.64 78.7733 361.64 77.92V49.24H357.52C356.587 49.24 355.827 48.9733 355.24 48.44C354.68 47.9067 354.4 47.0667 354.4 45.92V38.6C354.4 37.5333 354.68 36.76 355.24 36.28C355.827 35.7733 356.587 35.52 357.52 35.52H361.64V30.92ZM391.448 33.32C391.448 32.4667 391.688 31.7333 392.168 31.12C392.648 30.5067 393.394 30.2 394.408 30.2H403.568C403.888 30.2 404.234 30.28 404.608 30.44C404.981 30.5733 405.328 30.7867 405.648 31.08C405.968 31.3467 406.234 31.6667 406.448 32.04C406.688 32.4133 406.808 32.84 406.808 33.32V77.92C406.808 78.9333 406.528 79.7067 405.968 80.24C405.408 80.7467 404.608 81 403.568 81H394.408C392.434 81 391.448 79.9733 391.448 77.92V33.32ZM391.448 13.08C391.448 11.96 391.688 11.1733 392.168 10.72C392.648 10.24 393.394 10 394.408 10H403.688C404.621 10 405.368 10.24 405.928 10.72C406.514 11.1733 406.808 11.96 406.808 13.08V20.88C406.808 21.2 406.728 21.5467 406.568 21.92C406.434 22.2933 406.234 22.6533 405.968 23C405.701 23.3467 405.368 23.64 404.968 23.88C404.594 24.0933 404.168 24.2 403.688 24.2H394.408C392.434 24.2 391.448 23.0933 391.448 20.88V13.08ZM448.929 65.36C449.303 65.0933 449.649 64.9333 449.969 64.88C450.316 64.8 450.583 64.76 450.769 64.76C451.223 64.76 451.636 64.8533 452.009 65.04C452.383 65.2267 452.769 65.6267 453.169 66.24L457.649 73C457.783 73.2133 457.903 73.4533 458.009 73.72C458.143 73.9867 458.209 74.2 458.209 74.36C458.209 74.9733 458.009 75.48 457.609 75.88C457.236 76.2533 456.823 76.5867 456.369 76.88C454.183 78.4 451.783 79.6267 449.169 80.56C446.583 81.4667 443.836 81.92 440.929 81.92C438.529 81.92 436.209 81.6133 433.969 81C431.756 80.3867 429.689 79.52 427.769 78.4C425.849 77.2533 424.089 75.8933 422.489 74.32C420.889 72.72 419.529 70.9467 418.409 69C417.289 67.0533 416.409 64.96 415.769 62.72C415.156 60.4533 414.849 58.0933 414.849 55.64C414.849 53.1867 415.156 50.8267 415.769 48.56C416.409 46.2933 417.289 44.2 418.409 42.28C419.529 40.3333 420.889 38.5733 422.489 37C424.089 35.4 425.849 34.04 427.769 32.92C429.689 31.8 431.756 30.9333 433.969 30.32C436.209 29.7067 438.529 29.4 440.929 29.4C443.836 29.4 446.516 29.7867 448.969 30.56C451.449 31.3333 453.769 32.48 455.929 34L455.809 33.88C456.396 34.2267 456.863 34.64 457.209 35.12C457.556 35.5733 457.729 36.1467 457.729 36.84C457.729 37.32 457.569 37.8133 457.249 38.32L453.689 44.36C452.943 45.6667 452.036 46.32 450.969 46.32C450.729 46.32 450.436 46.2667 450.089 46.16C449.743 46.0267 449.356 45.8133 448.929 45.52C447.756 44.7467 446.489 44.12 445.129 43.64C443.796 43.1333 442.369 42.88 440.849 42.88C439.169 42.88 437.623 43.2267 436.209 43.92C434.796 44.5867 433.583 45.5067 432.569 46.68C431.583 47.8533 430.809 49.2133 430.249 50.76C429.689 52.3067 429.409 53.9333 429.409 55.64C429.409 57.4 429.689 59.0533 430.249 60.6C430.809 62.12 431.583 63.44 432.569 64.56C433.583 65.68 434.796 66.5733 436.209 67.24C437.623 67.88 439.169 68.2 440.849 68.2C442.369 68.2 443.796 67.9333 445.129 67.4C446.463 66.8667 447.729 66.1867 448.929 65.36ZM518.064 78.04C518.064 78.4933 517.984 78.9333 517.824 79.36C517.664 79.76 517.398 80.08 517.024 80.32C516.731 80.6133 516.384 80.8 515.984 80.88C515.584 80.96 515.238 81 514.944 81H507.064C506.504 81 506.051 80.9333 505.704 80.8C505.358 80.64 505.078 80.4267 504.864 80.16C504.651 79.8933 504.464 79.5733 504.304 79.2C504.171 78.8 504.024 78.3733 503.864 77.92L503.344 76.12C502.624 76.84 501.798 77.5467 500.864 78.24C499.958 78.9333 498.944 79.56 497.824 80.12C496.731 80.6533 495.544 81.08 494.264 81.4C493.011 81.7467 491.704 81.92 490.344 81.92C487.918 81.92 485.584 81.6133 483.344 81C481.131 80.3867 479.051 79.52 477.104 78.4C475.184 77.2533 473.438 75.8933 471.864 74.32C470.291 72.72 468.931 70.9467 467.784 69C466.664 67.0533 465.798 64.96 465.184 62.72C464.571 60.4533 464.264 58.0933 464.264 55.64C464.264 51.9333 464.944 48.4933 466.304 45.32C467.664 42.12 469.518 39.3467 471.864 37C474.211 34.6267 476.971 32.7733 480.144 31.44C483.318 30.08 486.718 29.4 490.344 29.4C491.998 29.4 493.531 29.5867 494.944 29.96C496.384 30.3333 497.691 30.84 498.864 31.48C500.064 32.12 501.144 32.8933 502.104 33.8C503.064 34.68 503.904 35.64 504.624 36.68L505.784 33.04C506.051 32.3733 506.264 31.84 506.424 31.44C506.611 31.0133 506.798 30.7067 506.984 30.52C507.198 30.3067 507.451 30.1733 507.744 30.12C508.038 30.04 508.451 30 508.984 30H514.944C515.238 30 515.584 30.04 515.984 30.12C516.384 30.2 516.731 30.3867 517.024 30.68C517.398 30.9733 517.664 31.3067 517.824 31.68C517.984 32.0533 518.064 32.48 518.064 32.96V78.04ZM478.664 55.64C478.664 57.4 478.931 59.0533 479.464 60.6C480.024 62.12 480.811 63.44 481.824 64.56C482.838 65.68 484.051 66.5733 485.464 67.24C486.904 67.88 488.491 68.2 490.224 68.2C492.011 68.2 493.664 67.88 495.184 67.24C496.731 66.5733 498.064 65.68 499.184 64.56C500.331 63.44 501.224 62.12 501.864 60.6C502.504 59.0533 502.824 57.4 502.824 55.64C502.824 53.9333 502.504 52.3067 501.864 50.76C501.224 49.2133 500.331 47.8533 499.184 46.68C498.064 45.5067 496.731 44.5867 495.184 43.92C493.664 43.2267 492.011 42.88 490.224 42.88C488.491 42.88 486.904 43.2267 485.464 43.92C484.051 44.5867 482.838 45.5067 481.824 46.68C480.811 47.8533 480.024 49.2133 479.464 50.76C478.931 52.3067 478.664 53.9333 478.664 55.64Z" fill="#00001E"/>
<defs>
<filter id="filter0_d_612_1686" x="0" y="2" width="62.8" height="55.189" filterUnits="userSpaceOnUse" color-interpolation-filters="sRGB">
<feFlood flood-opacity="0" result="BackgroundImageFix"/>
<feColorMatrix in="SourceAlpha" type="matrix" values="0 0 0 0 0 0 0 0 0 0 0 0 0 0 0 0 0 0 127 0" result="hardAlpha"/>
<feOffset dy="4"/>
<feGaussianBlur stdDeviation="2"/>
<feComposite in2="hardAlpha" operator="out"/>
<feColorMatrix type="matrix" values="0 0 0 0 0 0 0 0 0 0 0 0 0 0 0 0 0 0 0.25 0"/>
<feBlend mode="normal" in2="BackgroundImageFix" result="effect1_dropShadow_612_1686"/>
<feBlend mode="normal" in="SourceGraphic" in2="effect1_dropShadow_612_1686" result="shape"/>
</filter>
<filter id="filter1_d_612_1686" x="75.0964" y="2" width="62.8" height="55.189" filterUnits="userSpaceOnUse" color-interpolation-filters="sRGB">
<feFlood flood-opacity="0" result="BackgroundImageFix"/>
<feColorMatrix in="SourceAlpha" type="matrix" values="0 0 0 0 0 0 0 0 0 0 0 0 0 0 0 0 0 0 127 0" result="hardAlpha"/>
<feOffset dy="4"/>
<feGaussianBlur stdDeviation="2"/>
<feComposite in2="hardAlpha" operator="out"/>
<feColorMatrix type="matrix" values="0 0 0 0 0 0 0 0 0 0 0 0 0 0 0 0 0 0 0.25 0"/>
<feBlend mode="normal" in2="BackgroundImageFix" result="effect1_dropShadow_612_1686"/>
<feBlend mode="normal" in="SourceGraphic" in2="effect1_dropShadow_612_1686" result="shape"/>
</filter>
<linearGradient id="paint0_linear_612_1686" x1="58.8" y1="86.2291" x2="4" y2="38.5328" gradientUnits="userSpaceOnUse">
<stop stop-color="#34DA87"/>
<stop offset="1" stop-color="#1A83E7"/>
</linearGradient>
<linearGradient id="paint1_linear_612_1686" x1="58.8" y1="2" x2="4" y2="49.6963" gradientUnits="userSpaceOnUse">
<stop stop-color="#2594EF"/>
<stop offset="1" stop-color="#1A83E7"/>
</linearGradient>
<linearGradient id="paint2_linear_612_1686" x1="79.0964" y1="86.2291" x2="133.896" y2="38.5328" gradientUnits="userSpaceOnUse">
<stop stop-color="#30C463"/>
<stop offset="1" stop-color="#53D5E9"/>
</linearGradient>
<linearGradient id="paint3_linear_612_1686" x1="79.0964" y1="2" x2="133.896" y2="49.6963" gradientUnits="userSpaceOnUse">
<stop stop-color="#2B8FD9"/>
<stop offset="1" stop-color="#53D5E9"/>
</linearGradient>
</defs>
</svg>
