<svg width="205" height="34" viewBox="0 0 205 34" fill="none" xmlns="http://www.w3.org/2000/svg">
<path d="M32.5291 33.0135C24.9785 33.0188 19.7858 28.1181 19.7802 21.3876C19.7745 14.6571 25.0543 9.83856 32.4645 9.83326C38.1737 9.82796 42.6114 12.6787 44.0766 17.2241H39.3582C38.1765 14.9992 35.5802 13.53 32.4196 13.5327C27.7012 13.5353 24.26 16.8369 24.2628 21.4725C24.2656 26.0205 27.6198 29.4043 32.6217 29.4016C37.5281 29.399 40.7813 26.0523 40.3519 21.3266H44.9299C45.3594 28.3223 40.0796 33.0507 32.5768 33.056L32.5291 33.0109V33.0135Z" fill="white"/>
<path d="M61.4062 33.1275C53.9989 33.1328 48.6152 28.2321 48.6096 21.5015C48.604 14.8161 53.9792 9.90741 61.3866 9.9021C68.794 9.8968 74.1776 14.7975 74.1832 21.483C74.1888 28.1684 68.8136 33.032 61.4062 33.0373V33.1275ZM69.7483 21.4856C69.7455 16.8952 66.2032 13.5087 61.3894 13.5113C56.5756 13.514 53.0417 16.9058 53.0445 21.4962C53.0473 26.0867 56.5896 29.4731 61.4034 29.4705C66.2173 29.4678 69.7511 26.0761 69.7483 21.4856Z" fill="white"/>
<path d="M103.327 0.511669L103.352 32.6076H99.0102L99.0074 28.0199H98.912C97.2643 31.0961 93.9157 33.0611 89.8092 33.0638C83.1092 33.0691 78.009 28.1233 78.0034 21.4829C77.9978 14.8399 83.0895 9.84371 89.7896 9.83841C93.8483 9.83576 97.1998 11.7504 98.853 14.8691H98.9485L98.9372 0.469238L103.324 0.511669H103.327ZM90.8478 29.4068C95.6616 29.4041 99.1506 26.1025 99.2404 21.5996V21.3318C99.1898 16.8288 95.6953 13.5325 90.8814 13.5378C86.0227 13.5405 82.5337 16.9322 82.5366 21.4776C82.5394 26.0681 86.0817 29.4094 90.8955 29.4068H90.8478Z" fill="white"/>
<path d="M108.994 3.40479C108.994 1.62271 110.502 0.328584 112.531 0.325932C114.56 0.32328 116.071 1.61741 116.073 3.39949C116.073 5.13914 114.566 6.43061 112.537 6.43326C110.507 6.43326 108.997 5.14179 108.994 3.40479ZM110.322 10.2679H114.664L114.681 32.5545H110.339L110.322 10.2679Z" fill="white"/>
<path d="M132.87 3.6994C129.142 3.6994 128.059 5.5743 128.062 8.11482V10.2549L135.991 10.2496V13.7713L128.067 13.7766L128.081 32.5441H123.787L123.773 13.7793H119.29V10.2602H123.773V7.80455C123.762 2.85875 126.874 0.0026519 132.205 0C133.527 0 134.894 0.177677 136.075 0.442868V4.09719C135.04 3.82935 133.953 3.69675 132.918 3.6994H132.87Z" fill="white"/>
<path d="M139.191 3.38379C139.191 1.60171 140.698 0.307584 142.728 0.304932C144.757 0.304932 146.267 1.59641 146.27 3.37849C146.27 5.11813 144.763 6.40961 142.733 6.41226C140.704 6.41492 139.194 5.12079 139.191 3.38379ZM140.519 10.2469H144.861L144.878 32.5335H140.535L140.519 10.2469Z" fill="white"/>
<path d="M162.808 32.9208C155.258 32.9261 150.065 28.0254 150.059 21.2948C150.054 14.5643 155.333 9.74579 162.744 9.74049C168.453 9.73518 172.891 12.586 174.356 17.1313H169.637C168.456 14.9064 165.859 13.4372 162.699 13.4399C157.98 13.4425 154.539 16.7442 154.542 21.3797C154.545 25.9277 157.899 29.3115 162.901 29.3089C167.807 29.3062 171.061 25.9595 170.631 21.2338H175.209C175.639 28.2295 170.359 32.9579 162.856 32.9632L162.808 32.9181V32.9208Z" fill="white"/>
<path d="M204.263 10.2474L204.28 32.5366H199.938L199.935 27.9488H199.839C198.192 31.025 194.843 32.9901 190.737 32.9927C184.037 32.998 178.937 28.0522 178.931 21.4119C178.925 14.7689 184.017 9.77267 190.717 9.77002C194.776 9.76737 198.127 11.682 199.781 14.8007H199.876L199.873 10.2102L204.26 10.2527L204.263 10.2474ZM191.775 29.2907C196.634 29.288 200.171 25.8962 200.168 21.3509C200.165 16.8029 196.623 13.4641 191.764 13.4668C186.905 13.4694 183.416 16.8612 183.419 21.4066C183.422 25.997 186.964 29.3384 191.778 29.3358V29.2907H191.775Z" fill="white"/>
<path d="M5.538 33.52L19.3872 0.45081L13.8492 0.403076L0 33.4723L5.538 33.52Z" fill="#5531FF"/>
</svg>
